# xmcd CD database file
#
# Track frame offsets:
#	150
#	16875
#	37343
#	52264
#	72562
#	84515
#	106786
#	125841
#	143413
#	162400
#	186199
#	197216
#	215364
#	229710
#	261187
#
# Disc length: 3663 seconds
#
# Revision: 0
# Processed by: cddbd v1.5.1PL0 Copyright (c) Steve Scherf et al.
# Submitted via: NeoAudio 9.9.9
#
DISCID=df0e4d0f
DTITLE=The Leningrad Dixieland Jazz band - By the way
DYEAR=2001
DGENRE=Jazz
TTITLE0=Promenade Aux Shamp d'Elysse
TTITLE1=On the sunny side of the street
TTITLE2=I've got the world on a string
TTITLE3=Dreaming butterfly
TTITLE4=Лесное солнышко
TTITLE5=Just a squizze me
TTITLE6=You're nobody till somebody loves you
TTITLE7=Carolina in the morning
TTITLE8=My melancholy baby
TTITLE9=Comes love
TTITLE10=Ave maria
TTITLE11=Black Orpheus
TTITLE12=Если все не так..
TTITLE13=Blues for Alexander Ivanovich
TTITLE14=What a little moonlight can do
EXTD=YEAR: 2001
EXTT0=
EXTT1=
EXTT2=
EXTT3=
EXTT4=
EXTT5=
EXTT6=
EXTT7=
EXTT8=
EXTT9=
EXTT10=
EXTT11=
EXTT12=
EXTT13=
EXTT14=
PLAYORDER=
